<svg id="图层_1" xmlns="http://www.w3.org/2000/svg" xmlns:xlink="http://www.w3.org/1999/xlink" width="200" height="200" viewBox="0 0 200 200" enable-background="new 0 0 200 200"><path fill="#333" d="M103.524 89.304c-1.475.0-2.878.315-4.146.885l-3.503-6.068c2.306-1.153 4.905-1.803 7.649-1.803 1.095.0 2.164.104 3.202.301-.017.188-.026.379-.026.572.0 3.405 2.776 6.181 6.181 6.181 1.337.0 2.575-.428 3.587-1.154 2.354 2.695 3.882 6.125 4.187 9.893l-6.999.216C113.07 93.261 108.744 89.304 103.524 89.304v0zM112.88 87.624c-2.443.0-4.434-1.991-4.434-4.433.0-2.441 1.992-4.433 4.434-4.433s4.434 1.992 4.434 4.433C117.314 85.634 115.322 87.624 112.88 87.624v0zM93.326 99.501c0 3.223 1.509 6.104 3.857 7.975l-3.465 6.12c-2.988-2.085-5.287-5.094-6.478-8.607 1.632-1.114 2.709-2.989 2.709-5.108.0-2.203-1.163-4.142-2.907-5.237 1.1-3.719 3.429-6.919 6.514-9.127l3.69 5.958C94.861 93.344 93.326 96.25 93.326 99.501v0zM83.767 104.315c-2.441.0-4.433-1.992-4.433-4.434.0-2.441 1.992-4.433 4.433-4.433 2.444.0 4.434 1.992 4.434 4.433C88.201 102.323 86.211 104.315 83.767 104.315v0zM103.524 109.697c5.246.0 9.588-3.994 10.14-9.096l7.003.111c-.288 4.098-2.023 7.807-4.696 10.617-.855-.447-1.826-.701-2.854-.701-3.246.0-5.923 2.524-6.164 5.709-1.109.226-2.255.346-3.43.346-2.69.0-5.241-.625-7.512-1.736l3.487-6.081C100.735 109.4 102.097 109.697 103.524 109.697v0zM113.117 112.375c2.441.0 4.433 1.992 4.433 4.434.0 2.44-1.992 4.433-4.433 4.433-2.443.0-4.434-1.993-4.434-4.433C108.683 114.366 110.675 112.375 113.117 112.375v0z"/></svg>