<svg id="图层_1" xmlns="http://www.w3.org/2000/svg" xmlns:xlink="http://www.w3.org/1999/xlink" width="200" height="200" viewBox="0 0 200 200" enable-background="new 0 0 200 200"><path fill="#333" d="M111.843 101.655c-.055-8.073 4.482-8.282 4.685-8.411-2.552-3.73-6.521-4.317-7.933-4.372-3.377-.343-6.59 1.95-8.306 1.95-1.711.0-4.357-1.955-7.158-1.905-3.681.055-7.078 2.134-8.978 5.432-3.825 6.64-.98 16.474 2.751 21.856 1.82 2.636 3.994 5.596 6.849 5.491 2.746-.109 3.785-1.781 7.108-1.781s4.253 1.781 7.162 1.721c2.955-.055 4.83-2.686 6.635-5.332 2.094-3.059 2.955-5.869 3.004-6.018-.065-.03-5.765-3.248-5.825-8.63L111.843 101.655v0zM1e2 89.15c0-5.989 4.855-10.848 10.848-10.848C110.848 84.296 105.989 89.15 1e2 89.15z"/></svg>