<svg id="图层_1" xmlns="http://www.w3.org/2000/svg" xmlns:xlink="http://www.w3.org/1999/xlink" width="200" height="200" viewBox="0 0 200 200" enable-background="new 0 0 200 200"><path fill="#333" d="M111.926 91.636c.072-.595.002-.665-.587-.665-3.74-.001-7.48-.001-11.219.0-3.726.0-7.452.0-11.178.001-.681.0-.681.002-.681.674l.002 19.193c0 .141-.003.282.006.422.069 1.168.916 1.977 2.086 1.991.605.006 1.209.009 1.814.0.317-.004.472.13.471.449-.007 1.856-.012 3.711-.02 5.567-.006 1.29.508 2.048 1.619 2.275.731.148 1.483.125 2.221-.008.796-.144 1.533-1.224 1.52-1.915-.035-1.953-.001-3.908-.014-5.863-.003-.391.137-.515.517-.509 1.082.017 2.165.005 3.248.006.665.0.695.027.696.685.002 1.87-.004 3.74.004 5.61.005 1.086.691 1.906 1.752 2.03.567.066 1.146.108 1.722.033.226-.029.437-.085.643-.186.88-.43 1.203-1.18 1.208-2.103.008-1.842.0-3.683.003-5.525.001-.518.027-.541.555-.544.576-.002 1.153.012 1.729-.005.918-.028 1.924-.957 1.885-1.838-.031-.734.034-1.458.034-2.187.005-5.511.001-11.023.008-16.535C111.97 92.335 111.883 91.992 111.926 91.636zM88.801 89.621c3.753.001 7.507.001 11.26.001 3.767.0 7.535.002 11.303-.001.562.0.606-.067.422-.578-1.016-2.827-2.79-5.038-5.358-6.608-.404-.247-.438-.42-.175-.821.292-.447.585-.893.871-1.343.272-.426.537-.856.797-1.29.12-.203.116-.405-.104-.554-.224-.153-.4-.058-.55.12-.072.086-.127.186-.191.278-.59.855-1.066 1.782-1.68 2.624-.175.24-.328.289-.597.17-.385-.171-.778-.335-1.183-.443-2.793-.746-5.553-.707-8.255.414-.251.104-.421.063-.565-.175-.269-.445-.555-.879-.835-1.317-.325-.509-.649-1.019-.978-1.525-.135-.208-.323-.267-.545-.145-.236.13-.241.322-.123.538.074.136.139.277.223.406.463.721.93 1.438 1.396 2.157.285.44.256.62-.158.858-1.031.59-1.964 1.299-2.774 2.175-1.201 1.298-2.101 2.771-2.666 4.446C88.143 89.583 88.178 89.621 88.801 89.621v0zM104.963 84.585c.597-.004 1.23.607 1.248 1.205.02.611-.607 1.269-1.223 1.284-.633.015-1.245-.582-1.264-1.232C103.707 85.243 104.352 84.59 104.963 84.585zM94.99 84.764c.592-.028 1.125.593 1.122 1.24-.004.65-.533 1.225-1.14 1.235-.634.012-1.226-.584-1.228-1.236C93.696 85.215 94.312 84.796 94.99 84.764zM118.723 97.643c0-1.18.021-2.36-.011-3.539-.021-.824-.371-1.455-1.156-1.854-.62-.315-1.253-.265-1.893-.265-1.39-.002-2.259.872-2.261 2.263-.003 1.938-.001 3.877-.001 5.815-.001 1.981.001 3.961-.002 5.941-.001.825.324 1.445 1.052 1.88.684.408 1.41.309 2.132.275.221-.01.466.066.659-.029.934-.461 1.496-1.155 1.487-2.27C118.707 103.123 118.723 100.383 118.723 97.643v0zM84.523 91.983c-.323.002-.647-.002-.97.001-1.416.012-2.421 1.131-2.268 2.545.038.351.052.7.052 1.051v5.018c0 1.841-.006 3.683.003 5.524.004.801.392 1.364 1.084 1.772.713.42 1.476.333 2.219.267 1.257-.111 2.022-1.008 2.013-2.267-.005-.758-.064-1.516-.06-2.273.02-3.161-.074-6.324.063-9.484C86.717 92.782 85.439 91.979 84.523 91.983z"/></svg>