<svg id="图层_1" xmlns="http://www.w3.org/2000/svg" xmlns:xlink="http://www.w3.org/1999/xlink" width="200" height="200" viewBox="0 0 200 200" enable-background="new 0 0 200 200"><path fill="#333" d="M117.271 81.756c1.593.0 2.896 1.303 2.896 2.896v23.456c0 1.593-1.303 2.896-2.896 2.896h-11.19l2.606 5.213c.29.724.0 1.593-.579 1.882-.145.145-.434.145-.579.145H92.616c-.869.0-1.448-.579-1.448-1.448.0-.29.0-.434.145-.579l2.606-5.213h-11.19c-1.593.0-2.896-1.303-2.896-2.896V84.652c0-1.593 1.303-2.896 2.896-2.896h34.542zM102.779 91.531c-1.154-.105-2.203.63-2.833.63-.525.0-1.364-.63-2.308-.63-1.154.0-2.308.734-2.938 1.784-1.259 2.099-.315 5.351.839 7.135l.21.315c.525.734 1.154 1.574 1.994 1.469.944.0 1.259-.63 2.308-.63 1.049.0 1.364.63 2.308.525.944.0 1.574-.839 2.203-1.784.63-.944.944-1.994.944-1.994h-.105c-.42-.21-1.784-.944-1.784-2.833.0-1.784 1.469-2.623 1.574-2.728C104.563 91.741 103.304 91.531 102.779 91.531zM102.779 88.069c-.734.0-1.574.525-2.099 1.049-.42.525-.839 1.364-.734 2.203.839.0 1.574-.42 2.099-1.049C102.464 89.747 102.884 88.908 102.779 88.069z"/></svg>